<mxfile host="app.diagrams.net" modified="2021-10-11T11:50:47.737Z" agent="5.0 (Windows NT 10.0; Win64; x64) AppleWebKit/537.36 (KHTML, like Gecko) Chrome/94.0.4606.71 Safari/537.36" etag="JLwA3wKttgSfVNbRF4xc" version="15.5.0" type="github">
  <diagram id="TkaoeO8MQuCMQyXxM-5T" name="Page-1">
    <mxGraphModel dx="1038" dy="491" grid="1" gridSize="10" guides="1" tooltips="1" connect="1" arrows="1" fold="1" page="1" pageScale="1" pageWidth="827" pageHeight="1169" math="0" shadow="0">
      <root>
        <mxCell id="0" />
        <mxCell id="1" parent="0" />
        <mxCell id="pDXb-ec8WOBfhCsUiJJ2-1" value="&lt;font style=&quot;font-size: 18px&quot;&gt;开始&lt;/font&gt;" style="rounded=1;whiteSpace=wrap;html=1;" vertex="1" parent="1">
          <mxGeometry x="368" y="90" width="80" height="50" as="geometry" />
        </mxCell>
        <mxCell id="pDXb-ec8WOBfhCsUiJJ2-2" value="结束" style="rounded=1;whiteSpace=wrap;html=1;fontSize=18;" vertex="1" parent="1">
          <mxGeometry x="524" y="550" width="80" height="50" as="geometry" />
        </mxCell>
        <mxCell id="pDXb-ec8WOBfhCsUiJJ2-3" value="" style="rounded=0;whiteSpace=wrap;html=1;fontSize=18;" vertex="1" parent="1">
          <mxGeometry x="348" y="170" width="120" height="60" as="geometry" />
        </mxCell>
        <mxCell id="pDXb-ec8WOBfhCsUiJJ2-4" value="&lt;span&gt;是否为管理员&lt;/span&gt;" style="rhombus;whiteSpace=wrap;html=1;fontSize=18;" vertex="1" parent="1">
          <mxGeometry x="330.5" y="270" width="155" height="80" as="geometry" />
        </mxCell>
        <mxCell id="pDXb-ec8WOBfhCsUiJJ2-5" value="参数更新" style="rounded=0;whiteSpace=wrap;html=1;fontSize=18;" vertex="1" parent="1">
          <mxGeometry x="504" y="470" width="120" height="40" as="geometry" />
        </mxCell>
        <mxCell id="pDXb-ec8WOBfhCsUiJJ2-6" value="是否重新登录" style="rhombus;whiteSpace=wrap;html=1;fontSize=18;" vertex="1" parent="1">
          <mxGeometry x="214" y="420" width="140" height="80" as="geometry" />
        </mxCell>
        <mxCell id="pDXb-ec8WOBfhCsUiJJ2-7" value="" style="endArrow=classic;html=1;rounded=0;fontSize=18;edgeStyle=orthogonalEdgeStyle;exitX=1;exitY=0.5;exitDx=0;exitDy=0;entryX=0.5;entryY=0;entryDx=0;entryDy=0;" edge="1" parent="1" source="pDXb-ec8WOBfhCsUiJJ2-4" target="pDXb-ec8WOBfhCsUiJJ2-19">
          <mxGeometry width="50" height="50" relative="1" as="geometry">
            <mxPoint x="534" y="350" as="sourcePoint" />
            <mxPoint x="564" y="380" as="targetPoint" />
            <Array as="points">
              <mxPoint x="564" y="310" />
            </Array>
          </mxGeometry>
        </mxCell>
        <mxCell id="pDXb-ec8WOBfhCsUiJJ2-8" value="" style="endArrow=classic;html=1;rounded=0;fontSize=18;edgeStyle=orthogonalEdgeStyle;exitX=0;exitY=0.5;exitDx=0;exitDy=0;" edge="1" parent="1" source="pDXb-ec8WOBfhCsUiJJ2-4">
          <mxGeometry width="50" height="50" relative="1" as="geometry">
            <mxPoint x="244" y="310" as="sourcePoint" />
            <mxPoint x="284" y="420" as="targetPoint" />
            <Array as="points">
              <mxPoint x="284" y="310" />
            </Array>
          </mxGeometry>
        </mxCell>
        <mxCell id="pDXb-ec8WOBfhCsUiJJ2-9" value="" style="endArrow=classic;html=1;rounded=0;fontSize=18;edgeStyle=orthogonalEdgeStyle;exitX=0.5;exitY=1;exitDx=0;exitDy=0;entryX=0;entryY=0.5;entryDx=0;entryDy=0;" edge="1" parent="1" source="pDXb-ec8WOBfhCsUiJJ2-6" target="pDXb-ec8WOBfhCsUiJJ2-2">
          <mxGeometry width="50" height="50" relative="1" as="geometry">
            <mxPoint x="424" y="380" as="sourcePoint" />
            <mxPoint x="474" y="330" as="targetPoint" />
            <Array as="points">
              <mxPoint x="284" y="575" />
            </Array>
          </mxGeometry>
        </mxCell>
        <mxCell id="pDXb-ec8WOBfhCsUiJJ2-10" value="" style="endArrow=classic;html=1;rounded=0;fontSize=18;edgeStyle=orthogonalEdgeStyle;entryX=0;entryY=0.5;entryDx=0;entryDy=0;exitX=0;exitY=0.5;exitDx=0;exitDy=0;" edge="1" parent="1" source="pDXb-ec8WOBfhCsUiJJ2-6" target="pDXb-ec8WOBfhCsUiJJ2-3">
          <mxGeometry width="50" height="50" relative="1" as="geometry">
            <mxPoint x="104" y="250" as="sourcePoint" />
            <mxPoint x="154" y="200" as="targetPoint" />
            <Array as="points">
              <mxPoint x="154" y="460" />
              <mxPoint x="154" y="200" />
            </Array>
          </mxGeometry>
        </mxCell>
        <mxCell id="pDXb-ec8WOBfhCsUiJJ2-11" value="" style="endArrow=classic;html=1;rounded=0;fontSize=18;edgeStyle=orthogonalEdgeStyle;entryX=0.5;entryY=0;entryDx=0;entryDy=0;" edge="1" parent="1" target="pDXb-ec8WOBfhCsUiJJ2-4">
          <mxGeometry width="50" height="50" relative="1" as="geometry">
            <mxPoint x="404" y="230" as="sourcePoint" />
            <mxPoint x="454" y="180" as="targetPoint" />
            <Array as="points">
              <mxPoint x="408" y="230" />
            </Array>
          </mxGeometry>
        </mxCell>
        <mxCell id="pDXb-ec8WOBfhCsUiJJ2-12" value="" style="endArrow=classic;html=1;rounded=0;fontSize=18;edgeStyle=orthogonalEdgeStyle;entryX=0.5;entryY=0;entryDx=0;entryDy=0;" edge="1" parent="1" target="pDXb-ec8WOBfhCsUiJJ2-3">
          <mxGeometry width="50" height="50" relative="1" as="geometry">
            <mxPoint x="408" y="140" as="sourcePoint" />
            <mxPoint x="433" y="90" as="targetPoint" />
            <Array as="points">
              <mxPoint x="408" y="140" />
            </Array>
          </mxGeometry>
        </mxCell>
        <mxCell id="pDXb-ec8WOBfhCsUiJJ2-13" value="" style="endArrow=classic;html=1;rounded=0;fontSize=18;edgeStyle=orthogonalEdgeStyle;entryX=0.5;entryY=0;entryDx=0;entryDy=0;exitX=0.5;exitY=1;exitDx=0;exitDy=0;" edge="1" parent="1" target="pDXb-ec8WOBfhCsUiJJ2-2" source="pDXb-ec8WOBfhCsUiJJ2-5">
          <mxGeometry width="50" height="50" relative="1" as="geometry">
            <mxPoint x="564" y="520" as="sourcePoint" />
            <mxPoint x="474" y="330" as="targetPoint" />
          </mxGeometry>
        </mxCell>
        <mxCell id="pDXb-ec8WOBfhCsUiJJ2-14" value="否" style="text;html=1;strokeColor=none;fillColor=none;align=center;verticalAlign=middle;whiteSpace=wrap;rounded=0;fontSize=18;" vertex="1" parent="1">
          <mxGeometry x="274" y="340" width="60" height="30" as="geometry" />
        </mxCell>
        <mxCell id="pDXb-ec8WOBfhCsUiJJ2-15" value="是" style="text;html=1;strokeColor=none;fillColor=none;align=center;verticalAlign=middle;whiteSpace=wrap;rounded=0;fontSize=18;" vertex="1" parent="1">
          <mxGeometry x="494" y="280" width="60" height="30" as="geometry" />
        </mxCell>
        <mxCell id="pDXb-ec8WOBfhCsUiJJ2-16" value="是" style="text;html=1;strokeColor=none;fillColor=none;align=center;verticalAlign=middle;whiteSpace=wrap;rounded=0;fontSize=18;" vertex="1" parent="1">
          <mxGeometry x="144" y="340" width="60" height="30" as="geometry" />
        </mxCell>
        <mxCell id="pDXb-ec8WOBfhCsUiJJ2-17" value="否" style="text;html=1;strokeColor=none;fillColor=none;align=center;verticalAlign=middle;whiteSpace=wrap;rounded=0;fontSize=18;" vertex="1" parent="1">
          <mxGeometry x="330.5" y="540" width="60" height="30" as="geometry" />
        </mxCell>
        <mxCell id="pDXb-ec8WOBfhCsUiJJ2-18" value="系统管理员登录" style="text;html=1;strokeColor=none;fillColor=none;align=center;verticalAlign=middle;whiteSpace=wrap;rounded=0;fontSize=18;" vertex="1" parent="1">
          <mxGeometry x="368" y="185" width="76" height="30" as="geometry" />
        </mxCell>
        <mxCell id="pDXb-ec8WOBfhCsUiJJ2-19" value="&lt;font style=&quot;font-size: 18px&quot;&gt;模型部署&lt;/font&gt;" style="rounded=0;whiteSpace=wrap;html=1;" vertex="1" parent="1">
          <mxGeometry x="504" y="392" width="120" height="40" as="geometry" />
        </mxCell>
        <mxCell id="pDXb-ec8WOBfhCsUiJJ2-20" value="" style="endArrow=none;html=1;rounded=0;fontSize=18;edgeStyle=orthogonalEdgeStyle;" edge="1" parent="1">
          <mxGeometry width="50" height="50" relative="1" as="geometry">
            <mxPoint x="565" y="468" as="sourcePoint" />
            <mxPoint x="565" y="434" as="targetPoint" />
          </mxGeometry>
        </mxCell>
      </root>
    </mxGraphModel>
  </diagram>
</mxfile>
